<svg width="400" height="100" viewBox="0 0 400 100" fill="none" xmlns="http://www.w3.org/2000/svg"><rect x="10" y="15" width="90" height="70" rx="6" fill="#111827" /><rect x="25" y="28" width="14" height="44" rx="1" fill="#F1F5F9" /><rect x="45" y="28" width="14" height="44" rx="1" fill="#F1F5F9" opacity="0.8" /><g><rect x="65" y="28" width="18" height="44" rx="1" fill="#EF4444" /><rect x="66.5" y="30.5" width="2" height="2" rx="0.3" fill="#111827" /><rect x="79.5" y="30.5" width="2" height="2" rx="0.3" fill="#111827" /><rect x="66.5" y="35" width="2" height="2" rx="0.3" fill="#111827" /><rect x="79.5" y="35" width="2" height="2" rx="0.3" fill="#111827" /><rect x="66.5" y="39.5" width="2" height="2" rx="0.3" fill="#111827" /><rect x="79.5" y="39.5" width="2" height="2" rx="0.3" fill="#111827" /><rect x="66.5" y="44" width="2" height="2" rx="0.3" fill="#111827" /><rect x="79.5" y="44" width="2" height="2" rx="0.3" fill="#111827" /><rect x="66.5" y="48.5" width="2" height="2" rx="0.3" fill="#111827" /><rect x="79.5" y="48.5" width="2" height="2" rx="0.3" fill="#111827" /><rect x="66.5" y="53" width="2" height="2" rx="0.3" fill="#111827" /><rect x="79.5" y="53" width="2" height="2" rx="0.3" fill="#111827" /><rect x="66.5" y="57.5" width="2" height="2" rx="0.3" fill="#111827" /><rect x="79.5" y="57.5" width="2" height="2" rx="0.3" fill="#111827" /><rect x="66.5" y="62" width="2" height="2" rx="0.3" fill="#111827" /><rect x="79.5" y="62" width="2" height="2" rx="0.3" fill="#111827" /><rect x="66.5" y="66.5" width="2" height="2" rx="0.3" fill="#111827" /><rect x="79.5" y="66.5" width="2" height="2" rx="0.3" fill="#111827" /></g><text x="120" y="72" font-family="sans-serif" font-size="64" font-weight="900" style="letter-spacing: -3px;"><tspan fill="#EF4444">film</tspan><tspan fill="#111827">case</tspan></text></svg>