<svg width="550" height="200" viewBox="0 0 550 200" fill="none" xmlns="http://www.w3.org/2000/svg"><g transform="translate(10, 30) scale(2)"><rect x="0" y="0" width="90" height="70" rx="4" fill="#111827" /><rect x="15" y="13" width="14" height="44" rx="1" fill="#F1F5F9" /><rect x="35" y="13" width="14" height="44" rx="1" fill="#F1F5F9" opacity="0.8" /><g><rect x="55" y="13" width="18" height="44" rx="1" fill="#EF4444" /><rect x="56.5" y="15.5" width="2" height="2" rx="0.3" fill="#111827" /><rect x="69.5" y="15.5" width="2" height="2" rx="0.3" fill="#111827" /><rect x="56.5" y="20" width="2" height="2" rx="0.3" fill="#111827" /><rect x="69.5" y="20" width="2" height="2" rx="0.3" fill="#111827" /><rect x="56.5" y="24.5" width="2" height="2" rx="0.3" fill="#111827" /><rect x="69.5" y="24.5" width="2" height="2" rx="0.3" fill="#111827" /><rect x="56.5" y="29" width="2" height="2" rx="0.3" fill="#111827" /><rect x="69.5" y="29" width="2" height="2" rx="0.3" fill="#111827" /><rect x="56.5" y="33.5" width="2" height="2" rx="0.3" fill="#111827" /><rect x="69.5" y="33.5" width="2" height="2" rx="0.3" fill="#111827" /><rect x="56.5" y="38" width="2" height="2" rx="0.3" fill="#111827" /><rect x="69.5" y="38" width="2" height="2" rx="0.3" fill="#111827" /><rect x="56.5" y="42.5" width="2" height="2" rx="0.3" fill="#111827" /><rect x="69.5" y="42.5" width="2" height="2" rx="0.3" fill="#111827" /><rect x="56.5" y="47" width="2" height="2" rx="0.3" fill="#111827" /><rect x="69.5" y="47" width="2" height="2" rx="0.3" fill="#111827" /><rect x="56.5" y="51.5" width="2" height="2" rx="0.3" fill="#111827" /><rect x="69.5" y="51.5" width="2" height="2" rx="0.3" fill="#111827" /></g></g><rect x="210" y="30" width="10" height="140" fill="#EF4444" /><text x="240" y="90" font-family="sans-serif" font-size="72" font-weight="900" fill="#111827" style="letter-spacing: -3px;">film</text><text x="240" y="160" font-family="sans-serif" font-size="72" font-weight="900" fill="#111827" style="letter-spacing: -3px;">case</text></svg>