<svg width="338" height="107" viewBox="78 33 338 107" fill="none" xmlns="http://www.w3.org/2000/svg"><g transform="translate(88, 49) scale(0.68)"><rect x="0" y="0" width="90" height="70" rx="6" fill="#111827" /><rect x="15" y="13" width="14" height="44" rx="1" fill="#F1F5F9" /><rect x="35" y="13" width="14" height="44" rx="1" fill="#F1F5F9" opacity="0.8" /><g><rect x="55" y="13" width="18" height="44" rx="1" fill="#EF4444" /><rect x="56.5" y="15.5" width="2" height="2" rx="0.3" fill="#111827" /><rect x="69.5" y="15.5" width="2" height="2" rx="0.3" fill="#111827" /><rect x="56.5" y="20" width="2" height="2" rx="0.3" fill="#111827" /><rect x="69.5" y="20" width="2" height="2" rx="0.3" fill="#111827" /><rect x="56.5" y="24.5" width="2" height="2" rx="0.3" fill="#111827" /><rect x="69.5" y="24.5" width="2" height="2" rx="0.3" fill="#111827" /><rect x="56.5" y="29" width="2" height="2" rx="0.3" fill="#111827" /><rect x="69.5" y="29" width="2" height="2" rx="0.3" fill="#111827" /><rect x="56.5" y="33.5" width="2" height="2" rx="0.3" fill="#111827" /><rect x="69.5" y="33.5" width="2" height="2" rx="0.3" fill="#111827" /><rect x="56.5" y="38" width="2" height="2" rx="0.3" fill="#111827" /><rect x="69.5" y="38" width="2" height="2" rx="0.3" fill="#111827" /><rect x="56.5" y="42.5" width="2" height="2" rx="0.3" fill="#111827" /><rect x="69.5" y="42.5" width="2" height="2" rx="0.3" fill="#111827" /><rect x="56.5" y="47" width="2" height="2" rx="0.3" fill="#111827" /><rect x="69.5" y="47" width="2" height="2" rx="0.3" fill="#111827" /><rect x="56.5" y="51.5" width="2" height="2" rx="0.3" fill="#111827" /><rect x="69.5" y="51.5" width="2" height="2" rx="0.3" fill="#111827" /></g></g><text x="158" y="97" font-family="sans-serif" font-size="64" font-weight="900" style="letter-spacing: -3px;"><tspan fill="#EF4444">film</tspan><tspan fill="#111827">case</tspan></text><text x="88" y="125" font-family="sans-serif" font-size="19" font-weight="500" fill="#94A3B8" style="letter-spacing: 10.35px;">A RECIPE ARCHIVE</text></svg>
